<?xml version="1.0" encoding="iso-8859-1"?>
<!-- Generator: Adobe Illustrator 16.0.0, SVG Export Plug-In . SVG Version: 6.00 Build 0)  -->
<!DOCTYPE svg PUBLIC "-//W3C//DTD SVG 1.1//EN" "http://www.w3.org/Graphics/SVG/1.1/DTD/svg11.dtd">
<svg version="1.1" id="Capa_1" xmlns="http://www.w3.org/2000/svg" xmlns:xlink="http://www.w3.org/1999/xlink" x="0px" y="0px"
	 width="597.86px" height="597.861px" viewBox="0 0 597.86 597.861" style="enable-background:new 0 0 597.86 597.861;"
	 xml:space="preserve">
<g>
	<g>
		<g>
			<path d="M43.25,211.027C19.402,211.027,0,191.622,0,167.769c0-23.848,19.401-43.25,43.25-43.25
				c23.853,0,43.258,19.402,43.258,43.25C86.508,191.622,67.103,211.027,43.25,211.027z M43.25,139.662
				c-15.498,0-28.106,12.608-28.106,28.107c0,15.503,12.608,28.115,28.106,28.115c15.503,0,28.115-12.613,28.115-28.115
				C71.365,152.271,58.753,139.662,43.25,139.662z"/>
		</g>
		<g>
			<path d="M597.86,211.027H122.352v-86.508H597.86V211.027z M137.495,195.884h445.223v-56.223H137.495V195.884L137.495,195.884z"/>
		</g>
		<g>
			<path d="M43.25,342.185c-23.848,0-43.25-19.406-43.25-43.26c0-23.848,19.401-43.25,43.25-43.25
				c23.853,0,43.258,19.401,43.258,43.25C86.508,322.779,67.103,342.185,43.25,342.185z M43.25,270.819
				c-15.498,0-28.106,12.608-28.106,28.106c0,15.504,12.608,28.115,28.106,28.115c15.503,0,28.115-12.611,28.115-28.115
				C71.365,283.428,58.753,270.819,43.25,270.819z"/>
		</g>
		<g>
			<path d="M597.86,342.185H122.352v-86.509H597.86V342.185z M137.495,327.041h445.223v-56.222H137.495V327.041L137.495,327.041z"/>
		</g>
		<g>
			<path d="M43.25,473.341c-23.848,0-43.25-19.406-43.25-43.26c0-23.848,19.401-43.248,43.25-43.248
				c23.853,0,43.258,19.4,43.258,43.248C86.508,453.935,67.103,473.341,43.25,473.341z M43.25,401.976
				c-15.498,0-28.106,12.607-28.106,28.105c0,15.504,12.608,28.115,28.106,28.115c15.503,0,28.115-12.611,28.115-28.115
				C71.365,414.585,58.753,401.976,43.25,401.976z"/>
		</g>
		<g>
			<path d="M597.86,473.341H122.352v-86.508H597.86V473.341z M137.495,458.197h445.223v-56.221H137.495V458.197L137.495,458.197z"/>
		</g>
	</g>
</g>
<g>
</g>
<g>
</g>
<g>
</g>
<g>
</g>
<g>
</g>
<g>
</g>
<g>
</g>
<g>
</g>
<g>
</g>
<g>
</g>
<g>
</g>
<g>
</g>
<g>
</g>
<g>
</g>
<g>
</g>
</svg>
