<svg xmlns="http://www.w3.org/2000/svg" viewBox="0 -5 550 120" height="148" width="696" preserveAspectRatio="none">
                <defs>
                    <clipPath id="a">
                        <path d="M0 0h3960v925.73H0V0z"></path>
                    </clipPath>
                    <linearGradient id="grad1" x1="50%" y1="0%" x2="50%" y2="100%">
                        <stop offset="0%" style="stop-color:#ca0303;stop-opacity:1"></stop>
                        <stop offset="100%" style="stop-color:#fd3a46;stop-opacity:1"></stop>
                    </linearGradient>
                </defs>
                <g clip-path="url(#a)" transform="matrix(.13 0 0 -.13 0 115.713)">
                    <path d="M413.578 755.941c-40.031 0-72.508-32.468-72.508-72.503 0-40.043 32.477-72.512 72.508-72.512 40.039 0 72.512 32.469 72.512 72.512 0 40.035-32.473 72.503-72.512 72.503zM363.359 925.73h100.442v-71.585a342.91 342.91 0 0 0 77.308-20.665l35.77 61.954 86.976-50.223-35.808-62.027a347.949 347.949 0 0 0 56.558-56.575l62.036 35.821 50.218-86.981-61.957-35.773c9.743-24.512 16.735-50.399 20.657-77.305h71.597V461.93h-71.597a343.64 343.64 0 0 0-20.664-77.301l61.968-35.774-50.222-86.98-62.055 35.82a347.96 347.96 0 0 0-56.555-56.554l35.832-62.051-86.976-50.223-35.782 61.973-1.16-.449-.004 298.183 91.168 52.633v111.746l-162.671-93.922h-3.043v-1.758l-.254-.144.254-.449V170.43l-1.594-.254V98.574H363.359v71.602l-1.14.176V556.68l.258.449-.258.144v1.758h-3.043l-162.672 93.922V541.207l91.172-52.633-.004-298.371-1.621.625-35.774-61.961-86.98 50.223 35.824 62.051a348.098 348.098 0 0 0-56.558 56.554l-62.04-35.82-50.226 86.98 61.969 35.774c-9.747 24.512-16.739 50.418-20.66 77.301H0v100.441h71.602a343.353 343.353 0 0 0 20.656 77.313L30.3 675.449l50.222 86.981 62.028-35.809a347.9 347.9 0 0 0 56.558 56.567l-35.804 62.023 86.976 50.223 35.77-61.95a342.862 342.862 0 0 0 77.308 20.661v71.585" fill="url(#grad1)" fill-rule="evenodd"></path>
                    <path d="M3960.3 704.457l-105.42-197.098 101.76-198.023h-66.02l-71.5 151.266-69.67-151.266h-67.84l104.51 190.684-103.6 204.437h64.17l73.34-159.516 76.1 159.516h64.17zm-401.54-120.094c0 19.559-3.81 34.375-11.46 44.465-7.64 10.082-20.32 15.125-38.05 15.125h-84.33c-39.73 0-59.6-19.863-59.6-59.59v-51.34h193.44v51.34zm-49.51 120.094c36.06 0 62.35-9.773 78.85-29.336 16.5-19.555 24.75-48.891 24.75-88.008V480.766h-247.53v-51.332c3.05-20.176 7.95-35.149 14.68-44.922 6.71-9.785 19.85-14.668 39.41-14.668h179.69v-60.508h-177.85c-35.45 0-62.95 9.012-82.51 27.043-19.57 18.023-29.34 45.379-29.34 82.047v165.937c0 80.067 39.73 120.094 119.18 120.094h80.67zm-266.77-59.59h-77.92c-25.06 0-44.16-7.183-57.3-21.543-13.14-14.363-19.72-35.601-19.72-63.715V309.336h-54.08v395.121h49.5l1.83-50.426c4.28 17.121 14.98 29.797 32.09 38.047 17.12 8.254 39.42 12.379 66.92 12.379h58.68v-59.59zm-475.8 0c-44 0-66-25.359-66-76.09V443.184c0-25.059 5.04-43.704 15.12-55.918 10.08-12.239 26.43-18.34 49.05-18.34h71.5c44.61 0 66.93 25.976 66.93 77.918v124.679c0 48.903-21.4 73.344-64.17 73.344h-72.43zm84.34 59.59c71.51 0 107.27-40.332 107.27-121.016V433.094c0-41.563-9.33-72.578-27.97-93.055-18.65-20.469-45.99-30.703-82.04-30.703h-96.26c-36.68 0-63.72 10.234-81.15 30.703-17.41 20.477-26.12 51.492-26.12 93.055v150.347c0 80.684 36.67 121.016 110.01 121.016h96.26zm-236.52-51.332h-88.01V309.336h-55.01v383.203c0 105.121 46.45 157.684 139.35 157.684h5.49v-60.508c-57.45 0-86.78-26.895-88-80.672h86.18v-55.918zm-274.11-284.199v108.172h-146.68c-15.29 0-27.36-4.426-36.21-13.293-8.87-8.856-13.3-22.77-13.3-41.715 0-18.945 4.89-32.539 14.66-40.793 9.78-8.25 21.4-12.371 34.85-12.371h146.68zm55.92-59.59h-198.02c-33 0-59.59 9.773-79.76 29.336-20.17 19.551-30.25 47.676-30.25 84.336 0 36.676 10.39 64.789 31.17 84.351 20.77 19.555 49.19 29.329 85.25 29.329h135.69v35.757c0 23.832-5.04 41.868-15.13 54.086-10.09 12.223-26.74 18.336-49.97 18.336h-158.6v59.59h157.69c44 0 75.48-12.223 94.42-36.668 18.95-24.453 28.42-57.762 28.42-99.93l-.91-258.523zm-347.46 0h-9.17c-46.44 0-80.52 11.152-102.21 33.457-21.7 22.312-32.55 55.77-32.55 100.391v401.539h59.59V703.539h86.18v-55h-88.01V439.512c0-47.063 28.72-70.586 86.17-70.586v-59.59zm-516.14 0v59.59h183.35c18.95 0 34.69 4.277 47.22 12.832 12.53 8.555 18.8 21.699 18.8 39.422 0 17.726-5.35 31.172-16.05 40.34-10.7 9.164-25.82 13.75-45.38 13.75h-89.84c-73.95 0-110.93 39.113-110.93 117.343 0 36.668 10.24 64.477 30.72 83.426 20.46 18.945 47.82 28.418 82.04 28.418h183.35v-60.504h-190.68c-33.62 0-50.42-16.504-50.42-49.512 0-20.164 4.43-35.14 13.29-44.914 8.87-9.781 23.99-14.668 45.38-14.668h85.26c42.17 0 72.42-9.472 90.76-28.425 18.33-18.946 27.5-47.364 27.5-85.254 0-37.285-11-65.242-33-83.887-22-18.641-50.42-27.957-85.26-27.957h-186.11zm-342.87 347.449c6.73 15.895 17.88 27.809 33.47 35.754 15.58 7.949 33.15 11.918 52.71 11.918h73.35c34.83 0 60.5-9.773 77-29.336 16.5-19.555 24.75-49.5 24.75-89.844V309.336h-54.08v266.777c0 45.836-21.7 68.754-65.1 68.754h-63.25c-50.12 0-75.17-26.894-75.17-80.668V309.336h-54.09v395.121h49.5l.91-47.672zm-126.51-347.449h-55.92v395.121h55.92V309.336zm2.75 485.883h-56.84v55.004H1067l-.92-55.004" fill="#231f20"></path>
                    <path d="M3287.25 125.332c0-17.793 3.45-30.793 10.39-38.945 6.91-8.203 15.55-12.258 25.93-12.258 10.31 0 18.96 4.055 25.95 12.18 6.97 8.144 10.47 20.879 10.47 38.281 0 16.609-3.58 29.129-10.78 37.547-7.19 8.41-15.88 12.636-26.02 12.636-9.96 0-18.44-4.14-25.46-12.468-6.98-8.282-10.48-20.625-10.48-36.973zm-18.57-81.504l21.84-3.312c.9-6.895 3.46-11.914 7.59-15.098 5.58-4.227 13.2-6.356 22.82-6.356 10.44 0 18.44 2.13 24.11 6.356 5.67 4.277 9.46 10.254 11.45 17.883 1.2 4.715 1.71 14.52 1.63 29.531-9.79-11.828-22.02-17.754-36.67-17.754-18.23 0-32.32 6.719-42.29 20.184-9.97 13.437-14.99 29.609-14.99 48.41 0 12.949 2.29 24.902 6.85 35.848 4.61 10.941 11.25 19.394 19.93 25.371 8.69 5.929 18.92 8.945 30.62 8.945 15.63 0 28.54-6.492 38.68-19.453v16.359h20.73V73.477c0-21.106-2.13-36.106-6.3-44.915-4.22-8.808-10.86-15.78-19.98-20.886C3345.59 2.578 3334.4 0 3321.06 0c-15.8 0-28.57 3.66-38.28 10.945-9.75 7.285-14.44 18.235-14.1 32.883zm-137.98 11.25v135.664h20.19v-19.277c9.75 14.914 23.8 22.371 42.16 22.371 8.01 0 15.32-1.484 22.01-4.402 6.73-2.969 11.72-6.805 15.03-11.602 3.37-4.758 5.68-10.422 7.03-16.965.81-4.265 1.24-11.726 1.24-22.371V55.078h-22.49v82.551c0 9.324-.85 16.344-2.59 21.012-1.75 4.629-4.86 8.332-9.29 11.086-4.47 2.781-9.66 4.179-15.66 4.179-9.58 0-17.81-3.136-24.79-9.336-6.94-6.23-10.4-18.007-10.4-35.41V55.078h-22.44zm-56.69 0v135.664h22.49V55.078h-22.49zm0 160.82v26.473h22.49v-26.473h-22.49zm-127.24-93.097c0-17.403 3.57-30.399 10.73-38.992 7.15-8.586 15.59-12.903 25.34-12.903 9.79 0 18.14 4.14 25 12.348 6.85 8.191 10.31 20.75 10.31 37.625 0 18.574-3.5 32.187-10.48 40.859-6.98 8.723-15.59 13.035-25.85 13.035-9.96 0-18.32-4.179-25-12.507-6.69-8.332-10.05-21.504-10.05-39.465zm70.99-67.723v17.137c-8.39-13.477-20.73-20.196-37.04-20.196-10.57 0-20.29 2.97-29.13 8.946-8.87 5.93-15.73 14.258-20.62 24.98-4.85 10.696-7.28 22.942-7.28 36.856 0 13.515 2.2 25.812 6.6 36.847 4.42 11.036 11.03 19.493 19.84 25.332 8.82 5.887 18.69 8.856 29.6 8.856 7.97 0 15.08-1.746 21.3-5.184 6.26-3.449 11.32-7.941 15.24-13.476v67.195h22.32V55.078h-20.83zm-143.48 68.106c-8.17-3.438-20.4-6.321-36.66-8.711-9.25-1.36-15.8-2.883-19.59-4.582-3.84-1.7-6.81-4.188-8.86-7.5-2.09-3.27-3.15-6.895-3.15-10.907 0-6.144 2.3-11.242 6.82-15.343 4.51-4.063 11.16-6.102 19.88-6.102 8.65 0 16.36 1.914 23.09 5.8 6.72 3.876 11.7 9.188 14.86 15.907 2.43 5.195 3.61 12.871 3.61 22.981v8.457zm1.88-51.36c-8.35-7.234-16.35-12.344-24.02-15.351-7.71-2.97-15.97-4.454-24.78-4.454-14.57 0-25.72 3.625-33.56 10.91-7.8 7.274-11.72 16.61-11.72 27.91 0 6.669 1.45 12.735 4.44 18.224 2.93 5.496 6.81 9.89 11.58 13.21 4.82 3.321 10.18 5.84 16.18 7.551 4.39 1.172 11.04 2.344 19.93 3.438 18.15 2.226 31.52 4.843 40.07 7.937.09 3.145.14 5.149.14 5.977 0 9.375-2.13 16.008-6.4 19.797-5.7 5.234-14.26 7.8-25.54 7.8-10.56 0-18.36-1.875-23.43-5.664-5.02-3.796-8.72-10.507-11.15-20.144l-21.94 3.094c2 9.589 5.29 17.402 9.84 23.293 4.56 5.925 11.2 10.507 19.85 13.679 8.64 3.184 18.65 4.805 30.06 4.805 11.34 0 20.49-1.395 27.56-4.102 7.07-2.742 12.26-6.148 15.62-10.293 3.33-4.14 5.63-9.324 6.99-15.652.72-3.926 1.1-10.988 1.1-21.191v-30.657c0-21.406.48-34.93 1.45-40.554.94-5.664 2.85-11.125 5.67-16.309h-23.47c-2.3 4.758-3.83 10.332-4.47 16.746zm-171.8-16.746v135.664h20.2v-20.547c5.15 9.598 9.92 15.957 14.3 19.016 4.35 3.055 9.16 4.625 14.4 4.625 7.57 0 15.24-2.488 23.07-7.41l-7.74-21.367c-5.45 3.347-10.95 5.007-16.44 5.007-4.94 0-9.33-1.531-13.24-4.539-3.92-3.047-6.69-7.238-8.35-12.597-2.52-8.157-3.76-17.09-3.76-26.817V55.078h-22.44zm-96.93 0v165.184h-60.26v22.109h144.96v-22.109h-60.5V55.078h-24.2zm-258.54 0l48.43 70.516-44.81 65.148h28.06l20.36-31.797c3.79-6.054 6.91-11.113 9.2-15.215 3.66 5.625 7.02 10.594 10.14 14.961l22.31 32.051h26.83l-45.78-63.887 49.28-71.777h-27.56l-27.21 42.168-7.25 11.375-34.78-53.543h-27.22zm-110.17 80.899h73.97c-.98 11.375-3.83 19.961-8.47 25.632-7.15 8.852-16.44 13.301-27.81 13.301-10.3 0-18.99-3.531-26.02-10.605-7.03-7.059-10.9-16.524-11.67-28.328zm73.72-37.208l23.21-2.921c-3.66-13.907-10.44-24.676-20.31-32.352-9.92-7.637-22.57-11.477-37.95-11.477-19.38 0-34.75 6.114-46.09 18.32-11.36 12.208-17.02 29.348-17.02 51.407 0 22.852 5.74 40.559 17.2 53.164 11.5 12.598 26.36 18.926 44.67 18.926 17.71 0 32.2-6.191 43.41-18.535 11.24-12.34 16.85-29.746 16.85-52.117 0-1.387-.04-3.438-.13-6.133h-98.79c.81-14.922 4.94-26.348 12.35-34.239 7.4-7.93 16.61-11.906 27.67-11.906 8.23 0 15.26 2.227 21.08 6.672 5.84 4.402 10.44 11.465 13.85 21.191zm-176.01-43.69v135.663h20.19v-20.547c5.15 9.598 9.92 15.957 14.3 19.016 4.35 3.055 9.16 4.625 14.4 4.625 7.58 0 15.24-2.488 23.08-7.41l-7.75-21.367c-5.45 3.347-10.95 5.007-16.44 5.007-4.94 0-9.32-1.531-13.25-4.539-3.91-3.047-6.68-7.238-8.34-12.597-2.52-8.157-3.75-17.09-3.75-26.817V55.078h-22.44zm-127.17 67.851c0-17.403 3.71-30.39 11.12-39.035 7.41-8.672 16.73-12.989 27.94-12.989 11.16 0 20.44 4.356 27.85 13.04 7.36 8.671 11.07 21.933 11.07 39.726 0 16.789-3.71 29.519-11.15 38.152-7.46 8.637-16.7 12.949-27.77 12.949-11.21 0-20.53-4.312-27.94-12.898-7.41-8.594-11.12-21.594-11.12-38.945zm-23.07 0c0 25.117 6.8 43.738 20.48 55.808 11.36 10.039 25.25 15.098 41.65 15.098 18.23 0 33.13-6.113 44.67-18.359 11.59-12.207 17.34-29.082 17.34-50.633 0-17.481-2.56-31.211-7.67-41.203-5.12-10.04-12.57-17.793-22.31-23.34-9.81-5.528-20.44-8.282-32.03-8.282-18.52 0-33.52 6.067-44.98 18.274-11.45 12.168-17.15 29.695-17.15 52.637zm-143.61-67.852v187.293H1966v-22.109h-99.19v-57.996h85.81v-22.11h-85.81V55.078h-24.23zm-97.05 20.586l3.23-20.324c-6.3-1.356-11.96-2.05-16.94-2.05-8.18 0-14.49 1.308-19 3.964-4.48 2.617-7.62 6.105-9.46 10.422-1.83 4.277-2.76 13.347-2.76 27.129v78.054h-16.49v17.883h16.49v33.613l22.35 13.79v-47.403h22.58v-17.883h-22.58V93.543c0-6.59.38-10.781 1.16-12.656.8-1.864 2.08-3.348 3.87-4.492 1.79-1.082 4.34-1.66 7.66-1.66 2.51 0 5.8.312 9.89.93zM1554.4 55.078v135.664h20.18v-19.277c9.75 14.914 23.81 22.371 42.16 22.371 8.01 0 15.33-1.484 22.02-4.402 6.73-2.969 11.71-6.805 15.03-11.602 3.37-4.758 5.67-10.422 7.04-16.965.8-4.265 1.23-11.726 1.23-22.371V55.078h-22.49v82.551c0 9.324-.85 16.344-2.6 21.012-1.75 4.629-4.85 8.332-9.28 11.086-4.47 2.781-9.67 4.179-15.67 4.179-9.59 0-17.81-3.136-24.79-9.336-6.94-6.23-10.39-18.007-10.39-35.41V55.078h-22.44zm-57.54 68.106c-8.18-3.438-20.4-6.321-36.66-8.711-9.25-1.36-15.81-2.883-19.59-4.582-3.84-1.7-6.82-4.188-8.87-7.5-2.08-3.27-3.14-6.895-3.14-10.907 0-6.144 2.29-11.242 6.81-15.343 4.51-4.063 11.16-6.102 19.89-6.102 8.65 0 16.35 1.914 23.08 5.8 6.73 3.876 11.71 9.188 14.86 15.907 2.43 5.195 3.62 12.871 3.62 22.981v8.457zm1.88-51.36c-8.35-7.234-16.36-12.343-24.02-15.351-7.71-2.97-15.97-4.453-24.79-4.453-14.56 0-25.72 3.625-33.55 10.91-7.8 7.273-11.72 16.61-11.72 27.91 0 6.668 1.45 12.734 4.43 18.223 2.94 5.496 6.81 9.89 11.59 13.21 4.81 3.321 10.17 5.84 16.18 7.551 4.39 1.172 11.03 2.344 19.93 3.438 18.14 2.226 31.51 4.843 40.07 7.937.09 3.145.13 5.149.13 5.977 0 9.375-2.13 16.008-6.38 19.797-5.72 5.234-14.27 7.8-25.56 7.8-10.56 0-18.36-1.875-23.42-5.664-5.03-3.796-8.73-10.507-11.16-20.144l-21.93 3.094c2 9.589 5.28 17.402 9.83 23.293 4.56 5.925 11.21 10.507 19.85 13.679 8.64 3.184 18.66 4.805 30.06 4.805 11.33 0 20.49-1.395 27.56-4.102 7.07-2.742 12.27-6.148 15.63-10.293 3.32-4.14 5.62-9.324 6.98-15.652.73-3.926 1.11-10.988 1.11-21.191v-30.657c0-21.406.47-34.93 1.45-40.554.94-5.664 2.85-11.125 5.66-16.309h-23.47c-2.29 4.758-3.82 10.332-4.46 16.746zm-108.43 3.84l3.24-20.324c-6.3-1.356-11.97-2.05-16.95-2.05-8.18 0-14.48 1.308-18.99 3.964-4.47 2.617-7.63 6.105-9.46 10.422-1.83 4.277-2.76 13.347-2.76 27.129v78.054h-16.49v17.883h16.49v33.613l22.35 13.79v-47.403h22.57v-17.883h-22.57V93.543c0-6.59.39-10.781 1.15-12.656.8-1.864 2.08-3.348 3.87-4.492 1.8-1.082 4.35-1.66 7.67-1.66 2.51 0 5.79.312 9.88.93zm-185.76 19.922l22.19 3.582c1.23-9.121 4.72-16.094 10.43-20.984 5.67-4.836 13.63-7.278 23.89-7.278 10.31 0 17.97 2.18 22.96 6.457 4.98 4.317 7.49 9.375 7.49 15.125 0 5.235-2.21 9.289-6.65 12.297-3.06 2.051-10.72 4.629-22.95 7.762-16.44 4.277-27.89 7.941-34.24 11.074-6.34 3.106-11.2 7.422-14.47 12.91-3.28 5.5-4.94 11.555-4.94 18.184 0 6.066 1.35 11.652 4.08 16.789 2.68 5.195 6.39 9.473 11.03 12.871 3.5 2.617 8.27 4.883 14.27 6.711 6.05 1.832 12.52 2.75 19.42 2.75 10.39 0 19.51-1.57 27.38-4.625 7.88-3.059 13.67-7.199 17.42-12.426 3.75-5.281 6.3-12.254 7.71-21.023l-21.93-3.098c-1.03 6.984-3.92 12.434-8.69 16.359-4.77 3.926-11.54 5.887-20.27 5.887-10.31 0-17.68-1.746-22.07-5.234-4.42-3.485-6.64-7.586-6.64-12.254 0-3.008.94-5.664 2.77-8.067 1.84-2.492 4.69-4.492 8.6-6.144 2.26-.84 8.86-2.793 19.85-5.848 15.89-4.355 26.96-7.89 33.21-10.683 6.31-2.746 11.25-6.797 14.83-12.082 3.58-5.274 5.37-11.817 5.37-19.668 0-7.676-2.22-14.864-6.56-21.668-4.39-6.758-10.69-11.992-18.91-15.696-8.22-3.71-17.55-5.546-27.94-5.546-17.24 0-30.37 3.671-39.4 10.996-9.02 7.324-14.77 18.183-17.24 32.57zm-133.13-40.508v135.664h20.19v-19.277c9.75 14.914 23.81 22.371 42.16 22.371 8.01 0 15.33-1.484 22.02-4.402 6.72-2.969 11.71-6.805 15.03-11.602 3.37-4.758 5.67-10.422 7.04-16.965.8-4.265 1.22-11.726 1.22-22.371V55.078h-22.48v82.551c0 9.324-.85 16.344-2.6 21.012-1.74 4.629-4.85 8.332-9.29 11.086-4.47 2.781-9.66 4.179-15.67 4.179-9.58 0-17.8-3.136-24.78-9.336-6.95-6.23-10.4-18.007-10.4-35.41V55.078h-22.44zm-64 0v187.293h24.19V55.078h-24.19" fill="#ed1c24"></path>
                </g>
            </svg>